<?xml version="1.0" encoding="UTF-8" standalone="no"?>
<!DOCTYPE svg PUBLIC "-//W3C//DTD SVG 1.1//EN" "http://www.w3.org/Graphics/SVG/1.1/DTD/svg11.dtd">
<svg width="100%" height="100%" viewBox="0 0 3439 2479" version="1.1" xmlns="http://www.w3.org/2000/svg" xmlns:xlink="http://www.w3.org/1999/xlink" xml:space="preserve" xmlns:serif="http://www.serif.com/" style="fill-rule:evenodd;clip-rule:evenodd;stroke-linejoin:round;stroke-miterlimit:2;">
    <g transform="matrix(1,0,0,1,-34.472608,0.415543)">
        <g id="Logo_Panedría_Ingeniería-de-Diseño_Caso-3.png" transform="matrix(3.357422,0,0,3.357422,35,0)">
            <path d="M1.5,0L1023.999,0C1024.428,0.257 1023.57,1.243 1023.999,1.5C1023.752,2.218 1023.209,1.77 1022.965,2.478C1022.958,2.497 1022.965,2.49 1022.966,4.5L1022.966,716.5C1022.966,734.914 1023.177,734.914 1022.966,736.5C1022.897,737.019 1022.569,737.48 1022.5,737.999L1.5,737.999C1.431,737.48 1.103,737.019 1.034,736.5C0.946,735.839 1.034,735.167 1.034,734.5C1.034,1.647 1.028,1.642 1.086,1.331C1.171,0.875 1.415,0.457 1.5,0Z" style="fill:rgb(241,234,218);"/>
            <path d="M420.475,71.046C411.468,71.531 411.528,71.914 402.545,72.949C398.466,73.419 398.539,73.788 394.482,74.354C389.403,75.063 388.365,75.647 386.559,75.88C386.436,75.896 376.266,78.029 370.597,79.799C367.852,80.656 364.159,81.704 363.597,81.863C362.868,82.07 362.929,82.24 354.574,84.747C350.328,86.021 328.578,94.848 321.66,98.797C319.653,99.943 319.586,99.8 313.38,103.29C310.05,105.163 310.179,105.368 306.714,106.983C305.712,107.451 300.514,111.213 299.201,112.034C288.546,118.698 274.023,129.744 261.663,141.67C249.218,153.678 243.244,161.352 238.394,167.417C235.537,170.99 232.549,175.482 232.069,176.203C230.526,178.522 230.398,178.417 228.875,180.753C216.485,199.765 213.331,207.126 209.114,215.319C208.897,215.742 204.13,227.348 202.527,231.51C197.621,244.251 193.18,260.603 192.129,266.435C191.572,269.525 191.175,269.434 190.814,272.542C190.291,277.045 189.83,276.956 189.247,281.462C188.657,286.016 188.221,285.935 187.922,290.526C187.366,299.04 186.715,298.986 186.596,313.501C186.371,341.052 187.506,341.003 187.823,346.475C188.028,350.006 187.848,350.02 188.621,353.473C188.833,354.423 188.701,354.431 190.674,365.473C191.122,367.981 190.878,368.017 191.606,370.466C191.794,371.099 191.582,371.139 193.517,378.496C193.899,379.949 193.76,380.373 194.457,382.515C194.9,383.876 196.204,389.717 197.269,392.591C198.914,397.03 205.507,419.728 221.166,445.692C223.349,449.312 223.274,449.339 229.423,458.554C233.035,463.968 233.561,464.603 233.967,465.094C239.623,471.931 244.494,479.26 256.553,491.447C268.419,503.44 270.767,504.89 277.329,510.698C279.09,512.257 284.818,516.622 287.412,518.619C289.468,520.201 296.623,525.709 314.737,536.096C341.449,551.414 357.47,555.273 365.551,558.374C371.347,560.598 389.304,564.751 391.561,565.138C392.196,565.247 392.165,565.388 399.467,566.71C400,566.806 401.414,566.859 402.592,567.186C404.992,567.851 404.991,567.8 407.465,567.976C409.211,568.101 415.172,569.832 440.501,569.779C453.334,569.752 462.177,568.145 462.463,568.126C467.553,567.79 467.484,567.379 472.535,566.764C482.08,565.602 497.911,560.215 499.502,560.239C502.572,560.286 508.03,566.034 502.576,569.611C501.027,570.626 484.266,580.313 479.531,582.561C473.4,585.472 468.512,588.72 449.382,596.194C441.516,599.268 441.609,599.519 427.613,603.858C423.61,605.099 423.723,605.52 403.42,610.161C399.984,610.947 399.929,610.642 396.526,611.588C393.574,612.409 393.525,612.065 390.537,612.675C386.337,613.533 384.296,613.251 377.535,614.668C377.385,614.699 358.751,616.503 351.502,616.643C329.96,617.062 317.681,615.319 312.532,615.065C307.46,614.815 307.561,614.109 302.483,613.762C297.225,613.404 279.474,609.388 277.555,609.107C276.778,608.993 267.509,606.898 258.634,604.087C253.534,602.471 236.676,597.567 216.325,587.862C212,585.8 206.628,583.708 186.388,571.682C184.963,570.835 178.839,567.556 161.828,555.08C161.164,554.594 148.06,544.277 142.695,539.288C135.696,532.779 135.588,532.912 128.85,526.146C118.536,515.792 104.854,499.341 99.596,491.436C94.244,483.389 89.934,477.663 82.123,463.709C69.977,442.01 64.278,425.832 60.163,414.628C59.33,412.358 52.934,390.875 52.268,386.54C51.881,384.015 51.77,384.062 51.137,381.6C51.067,381.33 49.412,373.709 49.196,371.537C48.944,369.01 48.95,369.029 48.337,366.543C47.604,363.567 48.153,363.499 47.531,360.494C45.592,351.124 46.957,350.944 45.278,341.536C44.998,339.965 44.707,306.472 45.357,301.484C46.777,290.581 45.93,290.486 47.597,281.517C48.155,278.517 47.662,278.457 48.605,274.525C48.998,272.886 50.056,263.047 53.84,248.586C54.328,246.721 54.428,246.758 55.758,241.574C56.823,237.425 62.209,219.791 64.94,213.696C67.91,207.064 71.183,196.679 83.308,175.392C100.813,144.66 118.392,125.985 129.401,114.406C142.424,100.711 165.484,81.368 188.248,68.073C190.359,66.84 193.248,65.071 193.68,64.807C195.544,63.665 208.957,56.498 213.436,54.38C222.219,50.227 238.286,42.617 265.416,35.242C267.459,34.686 268.588,34.566 272.511,33.54C274.98,32.893 275.014,33.111 277.463,32.384C278.602,32.046 293.477,29.088 296.535,28.825C300.685,28.469 303.576,27.485 311.469,27.083C315.536,26.876 315.457,26.078 323.514,25.863C324.46,25.837 345.23,24.985 358.479,25.797C362.694,26.055 364.447,25.686 370.467,26.684C375.017,27.438 375.759,26.95 385.485,28.6C388.97,29.191 389.024,28.779 392.473,29.612C395.122,30.251 395.191,29.851 402.514,31.433C407.351,32.479 411.307,32.762 426.565,37.273C430.069,38.309 430.082,38.2 433.578,39.236C433.682,39.267 448.647,44.543 450.57,45.329C474.626,55.156 484.493,61.041 495.592,67.338C498.653,69.075 504.552,71.491 502.778,76.606C501.542,80.171 497.978,79.557 497.504,79.475C491.869,78.503 481.866,75.008 475.55,74.177C471.483,73.641 471.561,73.233 467.459,72.851C464.175,72.546 452.649,69.337 420.475,71.046Z" style="fill:rgb(85,55,15);"/>
            <path d="M339.501,34.031C350.437,33.831 351.005,34.215 365.474,34.897C371.035,35.158 370.955,35.785 376.53,36.147C377.629,36.218 383.805,37.072 387.476,37.661C388.113,37.763 395.433,38.937 395.444,38.938C399.028,39.428 421.398,44.428 436.448,49.642C449.774,54.259 463.249,60.592 468.64,62.275C469.517,62.548 470.161,62.781 470.172,63.519C470.203,65.526 466.398,63.538 462.474,62.884C456.523,61.891 456.51,62.148 450.508,61.42C447.298,61.03 431.222,60.972 427.491,61.409C413.018,63.103 411.342,62.665 406.524,63.624C404.907,63.947 402.011,64.078 400.477,64.369C395.276,65.354 395.276,65.21 390.569,65.921C390.165,65.982 390.226,66.204 385.576,66.99C384.928,67.1 384.977,67.292 377.571,68.854C367.685,70.938 343.659,78.355 328.588,85.671C327.65,86.126 320.865,89.069 315.343,92.204C315.08,92.353 315.058,92.307 311.399,94.322C249.979,128.144 223.103,173.603 219.182,179.288C216.615,183.011 208.563,195.964 204.631,204.566C203.173,207.754 201.715,210.089 198.573,217.532C197.776,219.421 192.428,232.091 189.519,241.506C188.025,246.341 186.048,253.769 185.491,255.497C185.417,255.726 182.589,267.271 182.019,271.44C181.888,272.404 181.72,272.37 180.072,283.439C179.674,286.11 179.219,286.963 179.093,289.469C178.724,296.786 177.479,297.888 177.55,323.5C177.554,324.977 177.061,328.017 179.158,350.538C179.24,351.417 179.442,351.384 180.74,361.466C181.195,364.992 181.465,364.929 181.993,368.43C182.177,369.648 183.532,375.82 183.673,376.461C184.222,378.958 184.384,378.899 184.923,381.415C185.446,383.855 190.064,400.712 196.252,415.602C202.164,429.828 205.785,437.302 215.921,454.236C215.924,454.241 223.76,465.971 224.751,467.324C228.374,472.27 236.411,482.767 238.709,485.315C247.002,494.509 246.908,494.582 255.79,503.202C257.46,504.822 258.648,505.827 266.274,512.754C269.225,515.434 275.07,519.927 277.246,521.799C289.215,532.099 314.949,546.882 322.569,550.358C323.023,550.565 326.291,552.299 330.608,554.264C335.57,556.522 358.391,567.301 386.419,572.906C389.072,573.436 396.08,575.148 401.46,575.776C408.198,576.563 408.093,577.031 411.407,577.849C415.582,578.879 452.179,578.726 457.544,577.711C461.014,577.055 461.019,577.219 464.525,576.698C466.548,576.397 472.101,575.01 472.614,575.327C472.978,575.552 473.278,575.972 473.322,576.398C473.344,576.602 472.919,576.51 472.751,576.627C472.742,576.634 472.93,576.932 469.399,578.276C468.34,578.679 468.355,578.67 467.312,579.085C464.994,580.007 464.937,579.873 463.632,580.711C463.553,580.762 453.682,585.233 452.547,585.632C451.049,586.158 441.233,590.968 423.621,595.949C422.577,596.244 420.671,597.005 417.566,597.759C415.061,598.367 415.101,598.445 412.598,598.988C411.588,599.207 408.43,600.354 405.547,600.791C403.012,601.175 403.084,601.395 400.598,601.958C398.578,602.415 398.543,602.778 395.461,603.135C388.976,603.886 389.021,604.106 382.552,604.946C378.169,605.514 378.241,605.933 373.483,606.262C369.358,606.546 358.249,607.811 353.506,607.856C331.981,608.061 323.451,607.579 308.456,605.9C304.934,605.505 305,605.121 301.467,604.837C299.53,604.682 270.023,600.385 238.694,588.007C212.023,577.47 197.485,567.902 191.49,564.517C189.934,563.638 189.23,562.962 179.758,557.099C179.268,556.797 179.335,556.704 173.807,553.06C170.667,550.991 146.323,533.411 125.458,509.536C117.207,500.094 113.671,495.603 112.689,494.357C112.137,493.655 100.838,478.464 94.86,468.284C83.76,449.38 82.255,445.366 74.742,428.394C74.363,427.539 74.465,427.512 70.513,417.495C69.537,415.022 69.841,414.937 66.343,404.56C64.633,399.488 60.441,383.766 59.734,379.464C58.702,373.175 57.032,365.07 56.867,363.465C56.046,355.465 55.416,355.545 55.099,347.522C54.835,340.825 53.782,340.889 53.753,326.5C53.698,299.245 54.62,299.297 54.839,296.54C55.342,290.212 54.99,290.179 55.913,285.595C57.239,279.009 56.582,278.574 57.343,275.459C58.416,271.073 58.105,271.027 58.933,266.586C60.161,260.003 60.123,259.996 60.284,259.437C62.4,252.093 62.543,247.964 70.164,225.387C76.923,205.362 88.959,182.822 92.803,176.681C96.04,171.51 95.894,171.447 99.223,166.325C101.968,162.1 101.791,161.986 104.133,159.184C105.101,158.026 106.048,155.88 107.747,153.686C108.848,152.265 111.471,148.459 113.73,145.681C115.744,143.205 115.57,143.082 117.752,140.734C119.79,138.541 122.406,135.214 122.794,134.72C126.651,129.815 138.415,117.824 141.7,114.715C143.642,112.877 155.459,101.691 167.15,93.048C167.652,92.676 167.58,92.603 173.337,88.275C174.491,87.407 174.56,87.536 188.301,78.192C190.2,76.901 197.341,72.045 213.355,64.193C220.984,60.453 224.245,58.656 243.404,51.261C245.831,50.324 245.874,50.465 257.552,46.669C265.271,44.159 278.739,40.933 282.462,40.276C289.321,39.065 289.209,38.529 295.53,37.737C302.841,36.821 302.839,36.907 305.479,36.387C306.845,36.118 310.583,35.836 311.526,35.693C321.854,34.131 338.055,34.048 339.501,34.031Z" style="fill:rgb(189,155,94);"/>
            <path d="M412.266,283.328C414.019,277.505 414.224,276.947 429.061,241.319C440.701,213.367 440.342,213.238 452.139,185.344C456.154,175.852 456.06,175.831 460.158,166.358C460.4,165.799 460.348,165.79 463.119,159.341C464.424,156.305 465.185,156.926 468.501,156.921C518.925,156.838 518.952,156.784 519.719,157.061C520.57,157.367 520.742,158.317 520.767,158.454C520.811,158.692 520.809,163.291 520.779,163.533C520.384,166.716 517.707,164.894 512.554,166.655C508.465,168.053 503.307,169.136 501.299,177.449C499.926,183.128 500.148,183.201 500.126,225.5C500.09,298.219 499.974,298.196 500.151,304.515C500.178,305.458 500.806,313.408 502.925,317.272C508.19,326.876 519.557,324.042 520.626,326.429C520.921,327.089 521.329,332.366 520.248,333.18C519.642,333.637 519.548,333.583 480.5,333.583C448.542,333.583 448.432,333.645 447.807,333.138C446.823,332.34 446.98,327.265 447.528,326.521C449.364,324.03 459.412,327.016 463.765,316.61C464.083,315.851 465.304,312.933 465.685,306.51C465.789,304.757 465.738,304.755 465.829,233.501C465.86,208.542 465.638,197.943 467.173,191.494C467.239,191.216 468.202,187.169 466.419,188.001C465.559,188.402 465.746,188.589 465.536,189.52C465.412,190.069 465.319,190.628 465.147,191.165C465.088,191.35 464.91,191.483 464.849,191.668C464.576,192.487 464.675,193.043 462.999,197.69C461.99,200.485 461.936,200.449 441.941,248.688C416.76,309.439 415.45,312.789 413.252,318.406C412.873,319.374 412.835,319.344 408.263,330.401C406.95,333.575 406.656,333.881 403.498,333.872C397.681,333.855 396.313,334.031 395.427,332.55C394.12,330.368 394.085,330.309 382.933,303.317C381.149,298.997 350.268,224.579 343.826,208.372C341.704,203.031 338.682,196.458 337.54,191.478C337.258,190.248 337.417,190.198 336.793,189.112C336.366,188.367 336.295,188.305 335.445,188.409C334.195,188.564 335.729,189.305 335.764,199.5C335.941,250.871 335.826,292.422 335.804,300.502C335.785,307.085 336.789,309.632 338.166,314.588C339.338,318.803 343.907,324.012 351.453,324.913C356.154,325.475 357.484,325.059 357.514,328.5C357.528,330.073 358.078,333.088 355.477,333.198C355.073,333.215 302.568,333.208 302.514,333.202C300.411,332.971 300.214,332.621 300.193,330.506C300.171,328.287 299.686,325.802 302.439,325.245C305.598,324.606 308.145,324.984 313.478,321.471C317.172,319.037 319.002,313.238 319.261,312.418C320.984,306.96 320.903,306.865 320.904,274.5C320.909,184.48 321.298,184.45 320.661,181.47C320.503,180.728 319.933,178.065 317.238,172.623C314.97,168.045 311.841,167.76 306.537,166.366C303.345,165.527 300.407,166.661 300.262,163.517C300.024,158.369 300.323,157.954 300.601,157.567C301.246,156.672 301.516,156.837 321.5,156.855C329.608,156.862 355.203,156.905 355.471,156.942C357.877,157.28 357.71,158.121 362.225,168.626C363.384,171.323 370.599,188.454 371.174,189.645C371.496,190.313 390.456,235.042 393.697,242.41C397.548,251.164 407.134,273.851 408.291,276.59C410.079,280.82 410.169,281.195 410.27,281.615C410.342,281.915 410.396,282.219 410.466,282.519C410.533,282.801 410.455,283.182 410.682,283.361C410.781,283.44 410.791,283.359 412.266,283.328Z" style="fill:rgb(148,104,43);"/>
            <path d="M698.475,223.051C703.451,222.589 705.609,221.699 711.495,221.763C712.678,221.776 712.813,221.556 713.596,222.431C714.68,223.645 712.907,236.079 712.106,237.208C711.637,237.869 708.36,239.145 704.493,239.319C694.131,239.784 694.105,238.775 693.253,239.063C693.143,239.101 692.592,240.267 692.62,240.435C692.657,240.656 693.05,240.311 694.537,242.474C694.69,242.697 694.82,242.937 694.979,243.157C703.493,254.877 703.312,275.005 689.398,289.401C684.687,294.275 676.914,298.339 675.732,298.957C667.831,303.088 660.154,304.216 659.473,304.367C648.12,306.881 642.058,304.947 639.474,305.229C636.114,305.596 632.902,311.429 632.842,313.513C632.742,317.037 636.352,317.816 640.489,318.571C644.361,319.277 675.485,318.42 680.526,319.352C689.37,320.987 694.702,322.119 702.126,327.945C703.386,328.933 706.592,332.62 707.599,334.439C711.125,340.81 710.665,342.153 711.319,345.537C712.548,351.89 711.692,353.075 710.974,357.568C710.83,358.468 710.053,363.324 707.177,368.321C696.181,387.42 676.539,394.625 661.587,397.876C650.925,400.195 634.883,399.458 629.494,398.537C624.053,397.606 622.227,396.882 618.477,395.565C612.011,393.295 605.562,387.726 604.517,386.484C604.458,386.413 600.958,382.985 600.229,377.538C599.165,369.596 601.892,365.293 602.342,364.415C606.565,356.182 615.75,349.96 617.167,349C621.621,345.983 621.836,346.36 622.221,346.096C622.333,346.019 623.2,345.425 622.569,344.437C622.476,344.292 619.758,343.636 619.485,343.532C617.968,342.956 614.855,340.803 614.471,340.537C611.149,338.239 608.148,333.265 607.832,329.461C607.446,324.814 606.507,319.421 615.404,311.392C621.462,305.924 626.233,303.603 627.275,303.096C628.281,302.606 628.587,302.634 628.427,301.529C628.325,300.827 627.983,301.134 624.532,299.44C622.765,298.572 619.648,296.443 616.606,293.395C603.528,280.294 602.969,256.218 617.626,238.603C621.207,234.3 627.104,229.641 631.413,227.337C638.048,223.789 642.278,223.055 643.566,222.694C647.444,221.608 647.48,221.839 651.483,221.338C654.298,220.986 663.733,220.907 666.521,221.353C672.959,222.381 672.985,222.18 673.542,222.286C676.47,222.838 676.916,223.508 698.475,223.051Z" style="fill:rgb(148,104,43);"/>
            <path d="M720.964,277.543C722.052,265.574 727.462,253.69 732.163,247.262C740.174,236.307 744.391,233.852 751.375,229.294C758.632,224.558 769.194,222.418 769.455,222.347C773.234,221.312 787.51,221.649 790.544,222.298C793.514,222.934 793.492,222.972 796.529,223.174C798.215,223.286 800.28,223.681 801.459,223.808C815.763,225.343 818.252,221.333 819.574,222.406C820.14,222.865 820.065,224.331 820.056,224.503C819.916,227.259 820.044,237.851 820.06,304.5C820.06,307.755 819.581,314.714 822.469,320.517C825.353,326.315 831.479,324.95 833.314,325.868C833.634,326.028 834.476,326.026 834.248,331.482C834.241,331.642 834.191,332.844 833.392,333.3C832.825,333.624 832.772,333.583 806.5,333.583C790.454,333.583 789.968,333.772 789.504,332.498C789.146,331.515 789.333,322.571 789.369,321.507C789.436,319.568 788.771,318.787 787.291,320.038C786.987,320.295 782.659,323.701 782.173,324.014C767.618,333.372 763.815,333.592 761.424,334.261C753.916,336.364 747.809,334.981 742.259,331.972C731.349,326.058 727.208,316.1 726.82,315.348C724.768,311.376 721.674,301.513 721.13,296.538C719.706,283.523 720.557,282.212 720.964,277.543Z" style="fill:rgb(148,104,43);"/>
            <path d="M831.93,493.471C831.883,492.19 831.508,481.836 832.209,477.447C834.591,462.542 839.435,454.976 839.652,454.585C846.434,442.344 854.744,436.336 856.718,434.782C860.492,431.808 868.025,427.98 870.665,426.885C887.686,419.829 903.927,424.858 910.52,425.052C915.729,425.205 918.996,425.549 923.459,425.096C927.992,424.636 930.37,422.515 930.388,426.502C930.658,485.42 930.286,513.411 931.262,517.556C933.395,526.612 937.57,526.208 941.579,527.217C944.364,527.918 943.868,529.917 943.847,532.506C943.833,534.228 944.066,534.609 942.435,535.207C942.283,535.262 942.282,535.276 905.5,535.273C902.18,535.273 900.873,535.813 900.858,532.496C900.817,523.211 900.936,523.227 900.921,522.422C900.888,520.561 899.985,520.388 898.59,521.62C897.906,522.224 893.661,525.973 889.565,528.599C881.725,533.627 878.702,534.562 871.535,536.614C869.457,537.209 863.772,537.485 860.541,536.381C854.837,534.431 854.73,534.576 849.861,531.037C843.337,526.294 834.378,513.741 831.93,493.471Z" style="fill:rgb(148,105,42);"/>
            <path d="M772.532,422.948C775.79,422.871 784.573,421.488 794.292,429.751C800.866,435.341 802.512,440.303 804.743,449.44C805.958,454.414 804.998,510.692 805.804,515.451C807.873,527.674 813.065,526.715 817.542,527.216C820.335,527.529 819.866,529.635 819.843,532.506C819.826,534.716 819.686,535.219 817.49,535.269C813.881,535.351 771.499,535.279 767.5,535.272C764.436,535.267 763.355,535.56 763.328,532.503C763.301,529.466 762.651,528.604 765.56,527.691C768.347,526.817 768.348,526.828 768.588,526.746C775.964,524.25 774.96,511.491 774.96,498.5C774.96,457.983 775.342,457.72 772.719,452.391C767.948,442.698 755.888,444.128 747.33,449.194C743.603,451.4 741.472,452.147 741.22,454.476C741.146,455.162 741.396,509.103 741.4,509.501C741.452,514.441 741.408,522.819 746.467,525.555C751.662,528.364 754.31,526.13 754.359,530.502C754.38,532.386 754.864,535.041 752.477,535.257C750.638,535.424 705.578,535.285 701.5,535.272C698.533,535.263 697.552,535.458 697.529,532.5C697.517,530.951 697.278,529.071 698.288,528.203C699.549,527.119 706.976,529.173 709.383,521.462C711.374,515.084 711.223,514.986 711.25,492.5C711.282,464.892 711.691,464.894 711.556,462.498C711.213,456.414 708.74,450.157 707.609,448.418C706.888,447.308 704.652,446.219 703.409,445.936C701.419,445.484 700.314,445.926 700.287,442.503C700.281,441.861 699.811,438.644 701.616,437.733C703.883,436.588 704.231,437.773 714.409,434.245C724.353,430.797 737.336,423.684 739.484,423.387C740.717,423.216 740.931,423.336 741.195,424.555C741.363,425.333 741.191,425.341 741.184,434.5C741.18,439.907 740.843,439.911 740.981,440.36C740.994,440.404 742.21,441.037 742.3,441.043C742.424,441.05 743.495,439.72 743.592,439.599C747.271,435.031 754.113,429.967 755.788,428.941C765.243,423.144 770.977,423.113 772.532,422.948Z" style="fill:rgb(148,104,42);"/>
            <path d="M914.877,351.824C914.487,352.094 914.391,352.04 914.376,352.5C914.374,352.556 914.367,352.759 914.837,353.029C914.837,353.029 915.515,353.274 916.558,353.218C917.407,353.172 918.722,353.339 919.586,352.897C919.881,352.746 920.156,352.549 920.469,352.442C921.251,353.117 921.002,354.271 924.511,354.414C927.28,354.527 927.262,354.475 931.495,354.573C953.482,355.079 954.958,353.79 964.45,354.889C966.868,355.17 972.542,356.126 973.526,356.418C980.683,358.54 980.843,358.073 987.62,361.244C991.51,363.064 1001.918,367.524 1002.043,367.859C1002.145,368.131 1001.693,369.139 1001.415,369.249C1001.026,369.401 998.724,368.598 998.497,368.519C997.872,368.301 994.81,367.232 990.552,366.234C983.6,364.604 972.165,359.72 970.639,360.743C969.639,361.414 970.565,362.208 970.659,362.288C970.855,362.457 975.034,363.652 975.417,363.761C982.177,365.694 1001.639,374.605 1002.244,375.672C1002.451,376.038 1002.331,376.966 1002.221,377.053C1001.669,377.489 999.71,376.565 999.509,376.47C991.448,372.667 971.55,367.064 965.423,365.974C963.349,365.605 963.415,365.437 961.412,364.865C957.875,363.857 954.118,362.024 952.497,361.516C951.428,361.181 951.474,361.109 950.45,360.628C949.098,359.992 946.295,359.278 945.754,359.864C945.735,359.884 945.761,361.153 945.781,361.179C945.943,361.388 951.16,362.924 955.672,365.209C958.218,366.498 958.176,366.545 958.397,366.654C963.158,369.005 971.579,376.539 976.56,382.451C979.015,385.365 981.41,387.869 982.167,388.744C982.374,388.983 985.281,392.348 983.49,392.473C982.003,392.577 982.345,391.795 976.588,386.396C967.012,377.416 945.245,367.183 942.353,365.824C935.834,362.759 924.841,359.162 922.484,358.604C918.826,357.737 918.859,357.529 917.537,357.631C916.699,357.696 916.442,357.64 916.452,358.499C916.463,359.341 916.714,359.247 917.524,359.458C917.943,359.567 921.126,360.394 922.701,361.021C923.516,361.345 928.814,362.941 934.609,367.35C946.676,376.531 949.2,384.794 953.121,390.696C955.018,393.551 953.889,393.78 953.638,393.799C952.281,393.903 952.385,393.519 951.515,392.483C948.946,389.423 948.942,389.433 945.545,386.448C945.123,386.077 941.762,383.124 940.151,381.942C932.738,376.501 932.794,376.453 932.142,375.994C918.673,366.498 918.833,366.252 912.293,362.928C909.293,361.403 902.412,358.976 900.494,358.553C898.948,358.212 898.976,358.178 897.456,357.7C895.992,357.24 891.976,357.303 891.61,357.638C890.622,358.538 891.57,359.13 891.676,359.196C891.925,359.352 894.278,359.439 894.505,359.448C895.09,359.469 897.332,359.552 901.578,361.346C902.697,361.819 908.103,364.103 914.144,369.876C918.244,373.796 923.652,382.66 925.692,386.393C929.858,394.017 930.328,393.765 930.486,394.502C930.516,394.643 930.836,396.143 929.596,396.065C929.1,396.034 926.324,392.888 925.178,391.909C923.399,390.388 914.377,383.674 913.219,382.91C906.843,378.709 906.938,378.61 900.578,374.385C898.042,372.7 890.904,367.683 888.536,366.437C881.687,362.832 880.205,361.134 867.458,360.234C863.9,359.982 863.899,359.843 863.601,359.924C862.03,360.354 862.541,361.308 862.609,361.436C862.904,361.986 866.225,362.3 866.546,362.33C868.163,362.483 871.924,363.474 874.426,364.66C881.371,367.952 884.947,371.254 887.156,372.938C889.972,375.085 896.739,383.639 900.436,389.541C901.602,391.402 903.762,393.247 903.638,394.554C903.613,394.816 902.919,395.279 902.574,395.162C902.298,395.069 900.629,393.689 900.465,393.554C896.133,389.972 888.393,386.745 880.693,383.098C855.481,371.158 856.181,363.28 847.445,365.311C844.043,366.101 844.018,365.759 840.532,365.757C839.799,365.756 839.816,365.812 839.123,366.015C837.745,366.419 836.763,366.253 837.523,367.483C837.944,368.164 844.459,367.589 849.551,369.349C861.37,373.431 867.036,383.262 872.636,390.398C876.305,395.073 876.43,394.973 876.683,395.423C877.059,396.092 877.398,396.165 876.888,396.733C876.364,397.315 876.314,397.473 875.595,397.175C873.559,396.329 874.203,395.109 860.623,389.217C846.644,383.153 846.755,382.936 845.537,382.418C842.202,380.999 836.351,377.818 835.566,377.392C831.298,375.072 831.943,371.717 829.62,371.116C828.256,370.763 828.238,370.991 821.435,372.318C818.42,372.906 818.179,372.371 817.246,373.356C815.578,375.116 821.081,374.867 822.407,374.98C825.248,375.221 832.228,377.261 840.115,383.915C842.144,385.626 846.883,391.173 849.6,395.435C851.677,398.694 854.172,401.465 852.649,401.71C851.272,401.932 851.375,401.442 849.594,400.33C842.5,395.898 836.619,395.92 821.56,387.4C814.705,383.521 812.227,380.886 810.642,380.209C808.239,379.184 798.457,379.258 797.457,379.409C796.473,379.558 796.232,379.569 796.261,380.554C796.329,382.899 803.959,377.83 817.717,389.233C824.564,394.908 826.896,398.646 829.344,401.623C829.665,402.014 833.191,406.301 833.289,406.562C833.384,406.814 833.332,407.135 833.192,407.366C833.067,407.573 832.815,407.731 832.573,407.747C831.503,407.816 828.532,405.067 825.505,403.491C820.221,400.741 817.241,399.164 812.63,397.191C800.513,392.004 800.596,391.849 799.536,391.417C789.309,387.254 787.534,384.556 782.499,385.493C780.234,385.915 775.72,386.755 755.459,395.401C723.38,409.092 717.966,415.105 715.322,417.276C710.374,421.341 705.94,420.505 706.434,416.492C706.966,412.167 709.816,410.963 724.384,403.283C744.995,392.417 764.169,385.124 770.34,383.033C773.505,381.961 773.451,381.873 776.591,380.768C783.409,378.37 784.502,378.489 784.783,375.528C785.364,369.4 788.559,364.575 793.975,357.914C796.145,355.244 805.775,347.648 806.806,346.911C812.602,342.768 812.194,342.242 812.759,341.993C812.872,341.944 813.867,341.507 814.197,342.562C814.326,342.977 813.326,344.319 812.271,348.44C807.326,367.759 802.136,370.966 797.53,373.531C795.899,374.439 797.334,375.388 797.519,375.417C798.62,375.588 798.544,375.229 799.541,374.744C802.481,373.314 802.548,373.487 804.51,372.521C808.615,370.5 808.765,364.877 812.901,356.731C815.243,352.118 822.87,345.627 823.828,344.913C830.093,340.247 829.928,340 830.568,339.774C830.833,339.68 831.671,340.152 831.718,340.399C831.823,340.95 831.28,342.259 831.216,342.413C829.912,345.559 825.948,359.315 821.637,363.618C819.965,365.287 819.044,365.554 818.823,365.781C818.737,365.869 817.92,366.704 818.617,367.308C819.116,367.74 821.319,366.815 821.539,366.723C822.872,366.164 823.836,365.949 824.55,365.596C826.449,364.657 826.179,361.205 829.727,353.637C834.965,342.465 843.158,338.041 847.616,334.658C851.266,331.887 851.212,331.817 851.556,331.617C851.667,331.552 852.733,330.93 853.17,331.655C853.432,332.089 852.81,333.413 852.743,333.554C849.959,339.482 850.621,339.739 848.507,344.503C848.189,345.218 845.465,351.357 844.129,353.24C841.345,357.162 839.096,359.14 838.59,359.585C837.756,360.318 837.693,360.188 836.753,360.807C833.99,362.628 833.797,362.62 833.779,363.464C833.736,365.484 837.452,362.816 839.387,362.03C846.143,359.286 846.206,359.46 847.351,359.011C849.232,358.273 849.104,357.269 849.121,355.497C849.13,354.487 849.172,349.934 853.896,343.806C861.94,333.372 874.735,328.851 875.515,328.656C875.628,328.628 876.685,328.364 876.731,329.451C876.755,330.011 875.778,331.446 875.67,331.604C873.175,335.267 871.459,339.212 869.784,341.652C866.367,346.631 863.675,351.282 861.323,353.312C859.721,354.696 855.774,356.603 855.766,356.703C855.759,356.775 856.516,358.125 856.563,358.131C857.049,358.194 861.111,356.646 861.5,356.498C863.95,355.565 864.449,356.076 865.108,354.403C865.651,353.025 865.045,352.742 867.752,348.652C869.902,345.404 870.006,345.496 872.481,342.481C876.234,337.907 886.035,332.188 893.566,329.688C898.028,328.207 901.124,326.848 901.517,326.774C902.333,326.622 902.592,326.604 902.646,327.445C902.719,328.59 902.066,328.884 900.355,330.342C891.636,337.77 890.121,342.491 883.896,347.949C877.476,353.578 876.793,352.559 874.826,353.877C874.724,353.946 873.808,354.56 874.593,355.402C875.194,356.048 878.966,354.583 881.483,354.3C882.487,354.187 882.48,354.266 883.471,354.154C887.391,353.707 886.59,351.563 888.874,347.703C895.116,337.154 905.492,333.127 914.529,330.612C922.172,328.485 922.081,328.22 923.555,327.907C927.141,327.146 927.106,326.975 927.424,326.987C927.508,326.99 928.217,328.13 928.24,328.368C928.256,328.536 927.954,328.547 927.825,328.655C925.601,330.528 924.056,330.072 920.267,333.213C919.61,333.757 913.813,338.563 912.437,340.448C910.241,343.456 907.007,346.437 906.154,347.032C898.979,352.033 896.224,351.603 895.587,351.78C895.437,351.821 895.333,351.978 895.18,352.01C894.723,352.105 894.713,351.981 894.29,352.15C893.129,352.613 892.513,352.575 893.042,353.715C893.44,354.573 895.27,354.141 895.46,354.096C898.105,353.473 898.049,353.194 904.517,352.792C909.316,352.494 907.834,349.873 913.767,342.718C920.68,334.381 932.506,336.404 951.464,335.095C956.017,334.781 956.9,333.884 961.501,333.471C965.313,333.129 964.3,334.876 964.121,335.042C963.923,335.226 955.21,337.133 947.428,339.236C942.044,340.691 942.063,340.732 941.594,340.854C929.083,344.108 921.341,349.235 914.877,351.824Z" style="fill:rgb(145,103,45);"/>
            <path d="M578.932,504.486C578.708,460.939 579.258,452.942 577.7,448.421C574.845,440.136 569.34,441.156 567.855,440.042C567.495,439.772 566.859,439.296 567.081,434.466C567.209,431.661 570.028,432.231 572.538,431.661C575.32,431.03 582.427,430.34 596.44,426.283C606.746,423.3 608.23,422.415 608.757,424.418C608.831,424.698 608.83,427.253 608.829,427.5C608.826,432.779 608.792,489.746 608.919,493.49C609.038,497.012 608.614,505.543 613.775,511.252C618.926,516.95 629.628,516.855 635.7,512.819C640.512,509.621 641.042,509.04 641.077,504.499C641.094,502.259 641.237,483.858 641.068,476.501C641.048,475.636 640.999,475.657 640.999,474.5C640.992,452.554 641.315,451.15 638.715,446.382C635.461,440.416 629.68,442.792 628.978,440.347C628.784,439.669 628.822,435.577 628.825,435.521C629.029,432.239 630.984,434.162 646.405,430.153C653.975,428.186 653.945,428.112 654.605,427.949C656.626,427.45 656.56,427.279 658.575,426.774C660.84,426.205 669.343,423.483 669.498,423.464C669.649,423.445 670.608,423.323 671.036,424.582C671.177,424.997 671.018,425.001 671.063,497.501C671.075,515.864 670.716,516.038 672.696,520.414C675.215,525.981 675.5,526.422 681.5,527.498C684.677,528.067 686.115,527.275 686.017,530.502C685.898,534.422 685.934,535.212 683.494,535.27C681.381,535.321 647.62,535.276 644.501,535.272C641.849,535.269 641.206,535.153 641.135,532.513C641.054,529.48 641.115,529.5 640.991,526.49C640.91,524.53 641.482,522.749 640.812,522.177C640.125,521.591 639.939,521.531 639.344,522.211C639.191,522.386 637.738,524.046 637.387,524.379C636.263,525.45 632.002,528.703 630.537,529.558C628.344,530.839 623.272,534.626 614.547,536.713C612.325,537.245 605.323,537.098 603.475,536.594C599.99,535.644 593.156,534.262 586.725,527.294C579.986,519.992 579.364,509.685 578.932,504.486Z" style="fill:rgb(148,104,42);"/>
            <path d="M498.476,374.938C498.349,374.923 495.933,375.2 495.512,373.497C495.299,372.637 495.461,369.818 495.479,369.499C495.621,367.021 496.639,366.867 502.451,366.109C504.823,365.799 506.399,365.154 507.584,364.902C517.475,362.797 532.103,356.827 536.467,355.402C539.826,354.305 539.463,356.545 539.466,358.5C539.574,407.833 539.682,457.166 539.79,506.499C539.815,515.086 539.452,516.515 543.372,523.573C546.06,528.412 552.086,526.702 553.687,528.303C554.585,529.2 554.563,533.916 553.737,534.739C553.018,535.456 551.094,535.273 549.5,535.273C497.137,535.273 497.125,535.291 496.628,535.131C494.832,534.553 495.44,529.143 495.731,528.635C496.717,526.914 503.51,528.256 506.468,523.477C509.122,519.19 509.032,516.513 509.344,512.489C509.424,511.465 509.558,511.464 509.5,425.5C509.473,386.296 509.771,386.079 507.637,381.433C506.628,379.235 504.976,377.485 504.164,376.98C501.55,375.353 501.528,375.337 498.476,374.938Z" style="fill:rgb(147,103,42);"/>
            <path d="M351.527,422.935C357.774,422.826 359.023,423.476 361.589,424.129C361.753,424.17 363.243,424.549 363.63,423.561C363.755,423.245 363.727,420.744 363.724,420.499C363.502,400.348 364.297,396.567 360.493,394.512C357.269,392.771 354.839,393.188 354.729,391.48C354.555,388.778 356.342,389.998 376.568,381.647C380.404,380.064 383.2,378.511 383.324,381.513C383.354,382.217 383.526,451.421 383.541,457.5C383.599,480.561 383.412,480.865 385.448,483.546C387.29,485.969 391.117,483.961 391.35,487.509C391.596,491.246 389.965,490.849 387.5,490.85C365.519,490.851 365.349,490.93 364.751,490.269C363.703,489.109 364.689,482.343 364.174,481.723C363.5,480.91 362.393,481.973 362.281,482.08C361.984,482.365 360.703,483.46 360.565,483.578C352.595,490.39 341.919,495.174 332.319,488.792C329.085,486.643 326.477,484.642 322.876,478.293C320.658,474.382 319.15,467.168 319.091,464.518C318.926,457.117 319.517,455.756 320.125,452.43C322.513,439.361 331.534,429.716 338.47,426.44C344.208,423.73 346.071,423.425 351.527,422.935Z" style="fill:rgb(148,104,43);"/>
            <path d="M533.943,241.5C534.076,238.427 533.664,237.706 536.584,236.771C541.119,235.32 541.119,235.384 545.631,233.91C556.53,230.35 562.124,227.092 568.562,224.656C571.749,223.45 575.332,221.327 576.229,222.684C576.606,223.254 576.464,224.164 576.567,257.5C576.742,314.425 576.461,314.547 577.628,317.447C580.205,323.848 582.215,324.488 588.469,325.681C591,326.163 591.819,325.924 591.848,328.494C591.859,329.53 592.031,332.473 591.197,333.145C590.569,333.651 590.462,333.585 567.5,333.585C534.449,333.585 534.352,333.641 533.762,333.182C532.738,332.384 533.001,327.223 533.536,326.528C534.645,325.086 541.226,325.652 543.511,321.507C546.434,316.201 546.16,312.64 546.143,295.501C546.103,255.599 546.226,255.534 545.491,253.503C543.845,248.949 543.036,248.132 541.599,247.338C537.203,244.907 534.258,246.746 533.953,243.473C533.892,242.818 534.004,242.155 533.943,241.5Z" style="fill:rgb(148,105,43);"/>
            <path d="M790.078,256.5C790.103,298.829 790.181,298.811 790.093,302.489C790.062,303.754 790.509,306.712 783.418,310.334C781.141,311.497 780.314,311.394 776.498,312.493C772.765,313.569 766.558,312.786 761.706,308.275C756.817,303.731 753.156,297.377 750.36,285.534C749.481,281.808 748.868,278.491 749.126,267.49C749.362,257.47 754.403,239.211 763.55,237.873C768.2,237.193 772.644,238.573 773.4,238.808C774.493,239.148 779.529,240.712 786.613,244.285C789.757,245.871 789.795,247.266 789.83,247.408C790.063,248.344 790.077,255.772 790.078,256.5Z" style="fill:rgb(243,234,218);"/>
            <path d="M861.039,482.543C860.919,481.346 860.397,476.163 860.76,467.511C861.258,455.654 865.644,447.487 867.202,445.299C871.15,439.751 873.107,439.809 876.491,439.862C882.186,439.951 892.207,443.943 892.632,444.087C893.008,444.213 896.351,445.341 897.246,445.927C899.669,447.514 900.748,451.739 900.82,452.473C900.866,452.948 901.015,487.332 901.032,498.501C901.044,506.771 901.15,507.141 898.874,508.969C889.954,516.134 880.656,515.568 875.601,512.338C867.208,506.975 864.888,498.585 863.397,494.54C863.369,494.465 861.482,488.338 861.039,482.543Z" style="fill:rgb(243,235,219);"/>
            <path d="M426.533,422.952C428.402,422.89 439.467,421.539 447.598,429.398C449.105,430.856 453.669,435.461 455.042,444.568C456.309,452.976 454.305,453.567 453.59,453.778C452.36,454.14 419.586,453.718 418.534,453.817C418.348,453.835 417.111,453.951 416.914,455.494C416.854,455.964 417.247,458.294 417.288,458.536C417.982,462.647 417.805,462.681 419.209,466.602C423.02,477.247 433.573,478.258 437.497,477.484C444.629,476.077 448.144,472.182 450.31,470.263C450.506,470.09 452.438,468.378 453.567,470.45C454.522,472.205 454.335,473.649 451.436,477.45C438.135,494.887 418.002,494.223 408.373,486.669C407.747,486.179 403.156,482.577 401.456,479.527C397.315,472.097 397.214,468.398 396.714,464.472C395.984,458.746 396.353,458.74 397.009,453.454C397.88,446.421 402.187,438.342 405.369,434.398C413.716,424.053 422.542,423.37 426.533,422.952Z" style="fill:rgb(147,104,43);"/>
            <path d="M687.914,364.494C687.789,368.363 687.742,369.077 685.582,373.543C683.888,377.043 680.381,380.045 677.503,381.506C672.72,383.934 671.321,383.723 669.428,384.224C667.855,384.64 667.377,385.252 658.501,385.263C650.287,385.274 649.595,384.439 646.439,383.881C637.326,382.27 627.292,377.187 625.039,368.622C624.757,367.549 622.904,363.354 625.91,355.677C626.136,355.1 629.725,347.713 634.312,346.015C636.638,345.154 636.686,345.211 657.499,345.184C658.43,345.182 680.616,343.544 686.526,357.488C687.689,360.232 687.884,363.924 687.914,364.494Z" style="fill:rgb(243,235,219);"/>
            <path d="M672.071,263.517C672.12,269.233 672.845,277.059 668.053,286.256C665.729,290.716 657.601,296.138 648.723,291.1C644.83,288.892 642.101,284.12 641.686,283.396C637.291,275.713 637.24,269.938 636.56,264.493C635.179,253.439 638.426,243.946 638.929,242.657C639.692,240.702 643.053,234.118 648.448,233.214C654.627,232.178 660.954,235.967 663.533,239.472C663.956,240.045 666.612,243.127 668.435,247.528C671.003,253.725 670.4,253.893 671.749,260.449C671.799,260.69 671.845,260.912 672.071,263.517Z" style="fill:rgb(243,235,219);"/>
            <path d="M698.463,710.071C697.969,710.088 687.515,711.719 680.938,704.11C676.979,699.53 676.919,693.476 676.91,692.492C676.845,685.882 676.755,684.172 680.434,678.452C682.564,675.14 689.298,669.886 698.477,670.733C702.135,671.07 702.829,671.299 705.484,672.532C706.245,672.884 714.543,677.544 715.295,686.518C715.926,694.052 714.097,697.916 713.454,699.48C710.563,706.514 704.157,709.278 700.554,709.807C699.859,709.909 699.158,709.969 698.463,710.071Z" style="fill:rgb(146,104,44);"/>
            <path d="M294.078,692.475C294.063,692.626 294.447,705.289 278.433,709.223C277.195,709.527 276.132,709.788 262.498,709.606C259.513,709.566 259.899,708.473 259.873,705.496C259.597,672.892 259.221,672.74 259.899,671.813C260.495,670.998 260.685,670.99 272.506,671.203C280.956,671.354 283.985,672.253 288.594,676.394C294.333,681.552 294.165,688.462 294.078,692.475Z" style="fill:rgb(146,103,43);"/>
            <path d="M487.927,681.468C487.996,680.549 487.189,672.671 497.496,670.481C500.92,669.753 510.343,671.448 509.541,680.502C508.952,687.148 503.344,687.957 502.712,688.71C501.427,690.239 505.354,693.932 505.696,694.119C508.919,695.878 510.676,683.841 512.648,682.78C513.177,682.495 517.817,681.898 518.943,683.089C519.605,683.789 519.468,685.017 519.455,685.499C519.208,694.424 516.982,694.388 515.563,696.547C515.409,696.781 515.27,697.024 515.112,697.255C514.96,697.478 513.48,699.648 514.455,700.558C515.241,701.292 521.262,700.059 521.685,701.404C522.019,702.466 520.407,706.891 520.143,707.27C519.365,708.386 518.247,709.452 515.512,709.683C509.055,710.227 507.544,707.261 505.491,707.407C504.437,707.483 498.254,711.059 491.462,709.693C481.629,707.715 479.477,696.439 484.154,691.193C487.105,687.884 489.459,688.894 488.666,685.46C488.205,683.467 488.189,683.492 487.927,681.468Z" style="fill:rgb(149,106,47);"/>
            <path d="M562.506,209.031C560.594,208.895 555.526,209.024 549.888,204.097C549.353,203.63 545.057,198.662 544.371,192.512C543.111,181.203 551.344,175.601 552.642,174.718C558.286,170.878 565.532,171.106 570.701,174.137C581.415,180.42 580.027,190.444 579.934,192.529C579.588,200.312 574.172,205.444 569.532,207.567C565.985,209.19 563.456,208.962 562.506,209.031Z" style="fill:rgb(147,104,43);"/>
            <path d="M363.928,468.499C363.808,472.578 363.562,472.766 360.275,475.195C357.994,476.88 351.408,478.669 346.62,475.323C344.157,473.602 344.156,472.72 342.363,470.616C335.868,462.998 335.623,436.8 345.416,433.292C351.309,431.181 361.036,436.154 363.043,439.746C363.982,441.425 363.833,444.498 363.86,451.498C363.883,457.165 363.906,462.832 363.928,468.499Z" style="fill:rgb(243,235,218);"/>
            <path d="M842.971,706.492C842.867,690.087 842.711,674.181 842.727,673.505C842.754,672.325 842.552,672.191 843.448,671.422C843.964,670.978 848.091,671.085 848.499,671.084C861.822,671.062 862.09,670.754 866.529,673.458C867.103,673.808 870.429,675.834 871.046,680.548C871.892,687.009 867.986,690.704 867.323,691.331C867.195,691.453 866.178,692.415 866.653,693.437C867.17,694.548 867.267,694.486 871.103,699.799C874.833,704.965 875.21,704.649 877.459,707.53C878.089,708.336 878.45,708.34 878.036,709.286C877.695,710.066 876.304,709.921 874.488,710.001C874.01,710.022 870.378,710.183 868.507,710.085C864.317,709.867 864.673,708.651 859.776,701.325C857.961,698.609 856.457,694.977 854.477,695.445C852.727,695.86 854.711,707.753 853.153,709.119C852.692,709.523 852.455,709.73 845.497,709.6C844.006,709.571 843.212,709.325 842.98,707.47C842.94,707.147 843.011,706.816 842.971,706.492Z" style="fill:rgb(148,106,45);"/>
            <path d="M343.902,706.494C343.758,685.5 343.575,673.363 343.733,672.553C344.095,670.696 347.199,671.131 348.498,671.126C360.047,671.09 360.594,670.92 364.594,672.213C375.384,675.702 371.542,686.966 371.325,687.417C369.44,691.322 367.104,691.523 367.701,693.44C368.278,695.292 376.671,706.153 377.726,707.354C380.379,710.374 375.68,709.859 375.515,709.859C371.587,709.861 368.383,710.309 366.52,709.461C363.689,708.171 358.107,694.763 355.514,695.547C355.426,695.574 354.765,696.422 354.739,696.556C354.714,696.679 354.98,707.601 354.643,708.559C354.298,709.536 353.795,709.78 346.496,709.666C343.598,709.621 343.975,708.123 343.902,706.494Z" style="fill:rgb(149,106,45);"/>
            <path d="M558.915,706.492C558.604,672.822 558.294,672.697 558.915,671.819C559.568,670.896 562.898,671.132 563.499,671.13C573.974,671.106 582.064,670.194 586.296,677.615C586.53,678.027 587.348,679.46 587.098,683.483C586.726,689.475 583.269,690.726 582.892,692.575C582.624,693.893 586.712,701.054 592.274,706.707C592.411,706.847 595.46,709.616 591.522,709.747C582.731,710.038 582.27,709.748 581.598,709.323C577.725,706.878 571.968,691.978 569.715,696.57C569.656,696.688 569.725,698.955 569.729,699.5C569.786,707.819 569.788,707.839 569.54,708.517C569.176,709.512 568.524,709.708 561.498,709.605C558.422,709.559 559.079,707.739 558.915,706.492Z" style="fill:rgb(150,107,46);"/>
            <path d="M193.079,692.161C193.098,692 193.386,691.583 193.282,690.473C193.268,690.315 193.248,690.098 193.03,688.504C192.868,687.315 192.633,685.588 192.767,673.505C192.78,672.332 192.578,672.199 193.454,671.434C193.964,670.987 197.905,671.088 198.499,671.088C199.677,671.087 201.536,670.831 202.054,672.566C202.11,672.752 202.072,702.865 202.068,705.5C202.065,708.449 202.466,709.537 199.502,709.601C194.706,709.703 194.108,709.385 193.697,709.166C192.477,708.516 186.986,699.532 184.245,695.672C182.483,693.189 180.505,689.515 180.494,689.51C180.199,689.373 179.842,689.496 179.519,689.528C178.8,689.6 178.887,689.841 178.983,690.556C179.013,690.775 179.495,690.736 180.024,706.498C180.032,706.725 180.097,708.656 179.297,709.235C178.856,709.555 178.574,709.759 172.496,709.599C169.808,709.527 170.103,708.043 170.103,705.5C170.101,673.449 169.83,673.397 170.242,672.375C170.74,671.14 173.227,671.302 176.501,671.337C181.192,671.386 181.476,673.888 183.759,677.34C188.028,683.797 189.412,686.476 189.841,687.306C190.916,689.387 191.839,692.084 191.891,692.117C192.069,692.231 192.303,691.993 192.514,692.001C192.709,692.008 192.883,692.154 193.079,692.161Z" style="fill:rgb(147,106,47);"/>
            <path d="M233.515,701.053C231.493,700.96 231.513,700.961 229.491,700.935C226.149,700.892 225.181,700.218 224.273,703.439C223.01,707.915 223.151,707.946 223.027,708.33C222.554,709.801 220.8,709.659 214.493,709.699C214.343,709.7 213.033,709.709 212.658,709.331C212.09,708.759 212.479,707.564 213.225,705.404C221.607,681.138 221.635,681.158 224.448,673.48C225.36,670.992 225.858,671.147 228.499,671.143C235.878,671.132 236.886,670.688 237.777,673.408C241.576,685.011 241.596,684.985 246.074,697.654C249.829,708.278 249.928,708.555 249.226,709.207C248.451,709.927 240.267,709.623 239.538,709.392C238.238,708.98 237.603,706.62 236.771,703.424C236.027,700.57 234.66,701.224 233.515,701.053Z" style="fill:rgb(146,104,45);"/>
            <path d="M424.5,700.844C424.172,700.875 423.84,700.82 423.512,700.85C420.844,701.095 421.204,701.91 420.571,704.517C419.391,709.385 418.842,709.563 416.501,709.605C410.133,709.72 410.05,709.657 409.609,709.324C408.492,708.482 409.052,707.951 410.427,703.477C410.821,702.193 418.825,679.322 420.588,674.531C421.617,671.734 421.534,671.054 424.505,670.996C432.402,670.839 432.783,671.217 433.283,671.713C433.806,672.23 433.667,672.309 434.539,674.483C435.366,676.541 444.443,703.086 445.295,705.576C446.282,708.463 446.688,709.845 443.515,709.9C438.385,709.989 437.955,709.962 437.473,709.932C433.425,709.677 434.459,705.733 432.939,702.295C432.168,700.554 430.684,700.858 424.5,700.844Z" style="fill:rgb(146,104,44);"/>
            <path d="M925.5,671.047C930.671,671.047 931.884,670.508 932.876,673.365C933.042,673.844 933.019,673.845 934.832,679.398C935.413,681.177 935.618,681.103 942.527,701.491C944.328,706.806 946.472,709.572 942.504,709.613C935.441,709.685 935.154,709.582 934.554,709.369C933.344,708.937 933.279,707.315 932.686,705.44C931.695,702.309 932.066,700.776 929.493,700.733C921.478,700.597 921.025,701.005 920.488,701.488C919.705,702.193 918.595,707.002 918.481,707.496C917.757,710.634 916.713,709.865 913.5,709.866C911.278,709.866 908.185,710.045 907.644,709.376C906.773,708.299 907.463,708.095 914.368,688.456C919.146,674.864 919.728,673.639 920.315,672.402C921.16,670.624 924.037,671.059 925.5,671.047Z" style="fill:rgb(147,104,46);"/>
            <path d="M137.499,671.047C142.275,671.047 144.89,670.991 145.606,671.247C147.583,671.953 149.91,681.578 152.627,689.46C153.122,690.896 158.403,706.216 158.664,707.469C158.974,708.957 159.033,709.389 157.536,709.664C157.47,709.676 149.979,709.676 149.487,709.586C146.003,708.948 147.261,702.156 144.365,700.998C144.064,700.877 136.558,700.686 135.342,701.112C133.106,701.895 133.324,708.064 131.332,709.232C130.292,709.841 123.114,709.714 122.607,709.331C121.72,708.661 121.845,708.489 122.158,707.432C122.362,706.738 132.13,678.344 132.442,677.476C134.478,671.801 134.394,671.195 136.524,670.991C136.848,670.96 137.175,671.078 137.499,671.047Z" style="fill:rgb(146,103,44);"/>
            <path d="M652.523,696.925C651.406,697.118 649.648,696.435 649.603,699.502C649.47,708.444 649.718,708.539 649.173,709.227C648.794,709.706 648.724,709.951 641.492,709.866C638.376,709.83 638.877,708.618 638.863,705.498C638.717,672.559 638.597,672.485 638.996,671.83C639.6,670.837 639.898,670.936 653.505,671.079C656.667,671.112 661.492,670.506 665.848,676.252C666.025,676.485 666.952,677.707 667.582,679.468C668.119,680.967 668.48,685.185 667.661,687.559C664.783,695.902 657.25,696.662 652.523,696.925Z" style="fill:rgb(148,105,45);"/>
            <path d="M97.496,709.878C90.544,709.859 89.225,710.385 89.097,707.524C89.091,707.399 89.091,673.655 89.097,673.474C89.178,670.966 90.498,671.148 92.501,671.154C105.616,671.196 110.973,670.838 115.153,674.859C118.589,678.165 119.017,683.762 118.268,686.439C115.12,697.68 102.536,696.67 101.543,696.768C100.213,696.9 100.023,698.34 99.999,698.525C99.905,699.237 100.284,699.218 100.243,707.496C100.235,709.218 100.253,709.618 98.547,709.869C98.2,709.92 97.842,709.827 97.496,709.878Z" style="fill:rgb(148,106,45);"/>
            <path d="M324.5,694.217C321.33,694.211 317.943,694.121 317.487,694.476C316.563,695.197 316.702,695.333 316.667,696.508C316.658,696.808 316.575,699.622 316.918,700.252C317.454,701.239 320.696,701.055 324.492,701.014C330.186,700.952 331.722,699.336 332.121,702.521C332.152,702.767 332.124,707.421 331.699,708.581C331.125,710.151 330.539,709.906 318.5,709.897C315.833,709.895 313.166,709.894 310.5,709.892C310.175,709.891 306.814,709.888 306.449,709.579C305.226,708.541 305.856,708.167 305.776,675.5C305.775,675.264 305.769,672.645 305.799,672.553C306.341,670.88 306.745,671.105 308.497,671.093C310.099,671.081 325.351,670.971 328.527,671.105C330.367,671.184 330.71,671.971 330.751,673.492C330.887,678.632 330.634,679.51 329.671,679.861C327.676,680.588 317.877,679.301 316.964,680.811C316.633,681.359 316.292,684.609 317.475,685.544C318.136,686.067 325.83,685.661 326.403,685.89C327.993,686.525 327.748,688.455 327.749,689.501C327.75,689.817 327.755,692.933 327.407,693.442C327.366,693.503 326.474,694.121 326.408,694.136C326.259,694.169 326.267,694.142 324.5,694.217Z" style="fill:rgb(148,106,46);"/>
            <path d="M1.5,0C1.415,0.457 1.171,0.875 1.086,1.331C1.028,1.642 1.034,1.647 1.034,734.5C1.034,735.167 0.946,735.839 1.034,736.5C1.103,737.019 1.431,737.48 1.5,737.999C1.146,737.646 0.354,738.352 0,737.999C-0.353,737.646 0,737 0,736.5L0,0C0.257,-0.429 1.243,0.429 1.5,0Z" style="fill:rgb(242,235,219);fill-opacity:0.42;"/>
            <path d="M1023.999,1.5L1023.999,737.999C1023.742,738.427 1022.757,737.571 1022.5,737.999C1022.569,737.48 1022.897,737.019 1022.966,736.5C1023.177,734.914 1022.966,734.914 1022.966,716.5L1022.966,4.5C1022.965,2.49 1022.958,2.497 1022.965,2.478C1023.209,1.77 1023.752,2.218 1023.999,1.5Z" style="fill:rgb(242,235,219);fill-opacity:0.4;"/>
            <path d="M830.189,676.501C830.188,676.658 830.168,678.458 830.168,678.458C829.713,680.189 829.301,680.031 827.502,680.082C817.516,680.364 816.569,679.256 815.833,681.559C815.782,681.718 815.786,684.252 815.847,684.428C816.412,686.046 816.787,685.836 818.494,685.853C824.667,685.912 824.839,685.495 825.677,686.283C826.358,686.923 826.374,687.525 826.326,691.498C826.286,694.829 824.748,694.178 819.5,694.18C816.975,694.18 816.155,693.954 816.023,696.463C815.857,699.633 815.322,700.849 818.495,700.992C828.337,701.438 830.791,698.992 830.964,702.479C830.978,702.775 830.683,707.497 830.403,708.471C829.9,710.229 829.214,709.903 816.501,709.913C807.09,709.921 805.768,710.218 805.33,708.546C805.172,707.944 805.159,673.107 805.335,672.454C805.675,671.191 807.268,671.108 807.47,671.098C807.629,671.089 828.148,671.059 828.561,671.139C829.552,671.331 829.657,671.341 829.97,672.295C830.169,672.905 830.188,676.164 830.189,676.501Z" style="fill:rgb(148,106,45);"/>
            <path d="M625.954,675.5C626.063,678.692 626.678,679.95 623.493,680.082C620.213,680.218 613.574,679.645 612.673,680.653C612.12,681.272 611.646,685.177 613.416,685.729C614.131,685.952 621.124,685.798 621.433,685.894C623.065,686.397 622.885,686.787 622.905,688.49C622.92,689.77 622.998,693.041 622.546,693.534C621.774,694.376 621.646,694.161 620.491,694.177C613.87,694.269 613.657,693.774 612.73,694.725C612.261,695.208 612.219,696.335 612.214,696.482C612.099,699.614 611.971,700.783 614.464,700.994C616.287,701.148 622.047,700.986 623.539,700.763C625.901,700.41 625.897,700.3 626.519,700.429C628.447,700.829 627.305,703.758 627.167,705.462C627.009,707.399 627.252,707.448 626.734,708.631C626.232,709.776 625.82,709.602 610.5,709.602C603.402,709.602 601.542,710.081 601.383,707.511C601.36,707.14 601.372,673.579 601.375,673.494C601.469,670.575 603.532,671.144 608.5,671.144C624.737,671.144 624.855,671.067 625.422,671.585C625.714,671.852 625.841,672.304 625.86,672.373C625.86,672.373 625.946,675.25 625.954,675.5Z" style="fill:rgb(149,106,45);"/>
            <path d="M753.917,696.494C753.814,700.777 753.728,700.835 751.577,704.55C748.502,709.859 737.595,712.651 727.713,708.034C726.853,707.632 724.739,707.287 726.87,699.617C726.913,699.463 727.274,698.163 728.507,698.457C729.196,698.622 733.487,701.234 739.524,700.912C740.484,700.861 742.699,700.737 743.11,698.472C743.693,695.257 738.011,695.603 732.238,691.92C729.69,690.294 729.6,690.328 728.068,687.739C727.929,687.504 722.468,677.034 734.585,671.696C735.468,671.307 739.771,670.056 742.515,670.33C745.154,670.593 750.72,672.059 751.547,673.462C753.069,676.045 750.865,681.259 750.55,681.554C749.041,682.963 743.841,678.749 739.363,680.141C737.601,680.689 737.352,682.553 739.381,683.687C743.077,685.751 749.982,686.958 752.339,690.601C754.113,693.343 753.882,695.852 753.917,696.494Z" style="fill:rgb(148,105,45);"/>
            <path d="M784.182,706.503C784.109,708.335 784.504,709.657 781.501,709.691C774.499,709.769 773.562,709.916 773.365,707.511C773.28,706.477 773.497,682.451 773.238,681.583C772.934,680.564 771.681,680.402 771.514,680.38C770.181,680.207 764.081,680.735 763.136,679.97C762.053,679.091 762.355,678.885 762.507,677.501C763.043,672.611 762.658,671.243 766.498,671.222C768.581,671.21 791.668,671.083 792.545,671.249C794.625,671.643 794.464,674.368 794.502,677.5C794.54,680.565 793.556,680.406 790.504,680.579C788.18,680.711 785.851,680.668 785.252,681.134C784.211,681.943 784.371,682.188 784.258,693.497C784.17,702.39 784.179,705.463 784.182,706.503Z" style="fill:rgb(147,105,44);"/>
            <path d="M387.081,674.504C387.198,673.792 386.548,671.847 389.508,671.933C391.509,671.991 391.496,672.025 393.498,671.959C396.806,671.85 398.17,671.196 398.202,674.504C398.218,676.123 398.204,703.02 398.202,705.5C398.201,708.641 398.651,709.838 395.507,709.868C387.942,709.939 387.914,709.684 387.607,709.389C386.844,708.655 387.154,708.458 387.081,674.504Z" style="fill:rgb(147,105,47);"/>
            <path d="M896.955,706.508C896.925,706.828 897.044,707.151 897.014,707.471C896.814,709.625 895.396,709.585 894.503,709.602C887.561,709.736 887.318,709.518 886.862,709.109C885.977,708.315 886.303,705.98 886.151,676.502C886.136,673.639 886.117,673.646 886.149,673.448C886.417,671.821 886.864,671.985 888.515,671.917C890.399,671.838 894.911,671.861 895.467,671.864C897.938,671.876 897.228,674.679 897.201,676.497C897.099,683.524 897.131,701.909 896.955,706.508Z" style="fill:rgb(147,105,47);"/>
            <g transform="matrix(1,0,0,1,-2.089552,1.361765)">
                <path d="M922.41,351.153C936.064,344.443 940.472,344.512 945.49,343.449C948.392,342.835 958.099,342.412 965.485,343.603C967.365,343.906 970.459,343.959 972.523,344.383C979.58,345.832 986.652,346.809 987.375,346.976C994.667,348.659 994.758,348.437 995.267,348.84C995.36,348.914 996.155,349.543 995.363,350.322C994.624,351.049 989.025,349.712 988.487,349.584C984.06,348.527 974.715,348.328 969.475,349.37C965.515,350.157 965.448,349.687 961.527,350.61C959.871,351 950.179,352.21 946.491,352.39C943.416,352.541 926.641,354.075 926.639,354.075C923.883,353.716 922.938,351.468 922.41,351.153Z" style="fill:rgb(146,103,47);"/>
            </g>
            <path d="M687.924,688.537C687.98,688.17 688.022,687.801 688.078,687.435C689.248,679.743 696.41,677.442 700.862,681.04C706.851,685.88 703.935,694.455 703.897,694.606C702.042,701.861 696.258,701.792 694.543,701.329C687.234,699.357 687.871,691.022 687.924,688.537Z" style="fill:rgb(244,236,217);"/>
            <path d="M436.935,439.455C437.504,444.962 438.311,447.078 434.488,447.263C434.082,447.283 419.228,447.275 418.605,447.122C417.299,446.802 417.545,444.73 417.571,444.507C417.633,443.983 418.059,436.705 422.039,432.103C427.295,426.026 434.938,430.09 436.682,437.457C436.719,437.614 436.701,437.605 436.935,439.455Z" style="fill:rgb(244,237,220);"/>
            <path d="M283.069,688.535C283.073,688.72 284.37,697.92 276.476,700.425C274.304,701.114 271.675,701.028 271.605,701.001C270.366,700.522 270.343,698.727 270.34,698.503C270.322,697.142 270.133,682.657 270.413,681.479C270.721,680.179 272.266,680.111 272.464,680.103C272.875,680.085 278.411,679.378 281.386,683.583C282.803,685.586 282.957,687.897 283.069,688.535Z" style="fill:rgb(245,238,219);"/>
            <path d="M395.482,660.951C396.34,661.147 402.558,661.6 396.979,667.91C395.965,669.057 395.803,669.481 389.524,669.247C386.854,669.147 387.341,667.899 388.507,665.503C390.864,660.66 394.902,661.012 395.482,660.951Z" style="fill:rgb(145,104,49);"/>
            <path d="M887.407,665.455C888.223,664.115 888.181,664.099 888.606,663.588C892.768,658.582 899.388,660.932 897.457,665.479C895.666,669.693 892.834,669.24 888.524,669.165C888.32,669.162 886.145,669.124 886.574,667.512C886.765,666.797 887.217,666.17 887.407,665.455Z" style="fill:rgb(143,102,46);"/>
            <path d="M99.932,684.5C100.043,681.297 99.293,679.928 102.504,679.909C102.818,679.907 105.249,679.892 106.354,680.696C108.924,682.565 108.618,687.44 103.504,688.519C99.044,689.459 99.96,685.892 99.932,684.5Z" style="fill:rgb(250,240,217);"/>
            <path d="M657.099,683.528C656.906,685.142 657.121,685.193 656.507,686.503C655.076,689.557 650.585,689.146 649.936,688.178C649.516,687.553 649.063,680.961 650.347,680.298C651.879,679.507 655.992,679.617 656.86,682.375C656.978,682.749 656.982,683.154 657.099,683.528Z" style="fill:rgb(251,242,223);"/>
            <path d="M356.476,687.922C355.774,687.667 354.44,688.326 354.397,685.503C354.346,682.088 354.064,680.013 356.525,679.906C361.837,679.675 361.777,683.786 361.012,685.261C359.47,688.232 356.487,687.921 356.476,687.922Z" style="fill:rgb(252,246,227);"/>
            <path d="M856.541,687.904C856.204,687.861 855.864,688.051 855.527,688.009C853.472,687.75 853.761,685.768 853.759,685.496C853.735,683.026 853.628,680.758 854.378,680.353C855.651,679.666 859.697,679.331 860.548,682.486C860.608,682.708 860.944,683.951 860.177,685.335C858.751,687.907 856.864,687.807 856.541,687.904Z" style="fill:rgb(252,244,223);"/>
            <path d="M572.495,679.894C572.806,679.954 573.132,679.881 573.443,679.94C578.655,680.935 576.171,688.437 571.51,688.254C569.378,688.171 569.729,685.655 569.728,685.497C569.717,683.417 569.552,680.774 570.366,680.335C570.924,680.035 571.444,679.927 571.542,679.907C572.02,679.808 572.015,679.994 572.495,679.894Z" style="fill:rgb(251,246,230);"/>
            <path d="M230.502,682.526L231.371,682.611C231.841,684.079 231.877,684.053 232.159,685.585C232.377,686.77 232.665,687.136 233.272,689.561C233.62,690.953 234.559,693.108 231.488,693.125C228.68,693.141 227.586,693.343 227.855,690.544C227.906,690.004 229.789,681.999 229.957,681.976C230.213,681.942 230.246,682.561 230.502,682.526Z" style="fill:rgb(248,237,212);"/>
            <path d="M140.509,692.964C140.351,692.97 138.541,693.035 138.541,693.035C136.797,692.659 136.831,692.186 137.223,690.438C137.287,690.153 139.045,683.496 139.148,683.256C139.563,682.29 139.602,681.923 140.593,682.322C141.014,682.492 141.614,685.64 142.679,689.447C142.789,689.84 143.171,691.487 143.167,691.512C142.941,693.267 142.25,692.723 140.509,692.964Z" style="fill:rgb(248,238,213);"/>
            <path d="M427.497,693.123C426.86,693.006 426.19,693.235 425.553,693.118C425.384,693.087 424.167,692.864 424.151,691.501C424.147,691.135 425.753,686.235 426.165,684.338C426.482,682.879 426.378,682.837 426.622,682.614C427.977,681.381 428.362,683.39 428.392,683.547C429.677,690.261 431.557,692.944 428.47,693.119C428.146,693.137 427.821,693.105 427.497,693.123Z" style="fill:rgb(249,241,222);"/>
            <path d="M925.489,692.964C923.793,692.682 923.139,693.199 922.898,691.503C922.803,690.834 923.547,688.777 923.629,688.548C924.911,685.004 924.66,684.399 924.918,683.674C925.058,683.283 925.238,682.855 925.579,682.62C926.83,681.758 927.308,684.34 927.346,684.546C927.81,687.058 927.876,687.03 928.586,689.474C929.807,693.672 927.05,693.014 925.489,692.964Z" style="fill:rgb(248,238,213);"/>
            <path d="M497.536,701.914C497.121,701.88 494.536,702.395 492.72,699.381C491.392,697.177 492.778,692.374 495.794,695.143C500.614,699.568 500.588,699.935 500.549,700.507C500.5,701.214 499.641,701.523 499.531,701.563C499.379,701.618 499.384,701.589 497.536,701.914Z" style="fill:rgb(251,243,220);"/>
            <path d="M497.064,680.463C497.19,680.124 497.154,679.739 497.28,679.401C498.155,677.043 503.42,677.711 500.49,682.492C499.296,684.44 497.423,683.904 497.105,681.572C497.055,681.205 497.114,680.829 497.064,680.463Z" style="fill:rgb(250,243,227);"/>
        </g>
    </g>
</svg>
